<mxfile host="app.diagrams.net" agent="Mozilla/5.0 (Windows NT 10.0; Win64; x64) AppleWebKit/537.36 (KHTML, like Gecko) Chrome/129.0.0.0 Safari/537.36 Edg/129.0.0.0" version="24.7.17">
  <diagram id="vDw3GZuYYyZ-ynexIAmI" name="Page-9">
    <mxGraphModel dx="2358" dy="1725" grid="1" gridSize="10" guides="1" tooltips="1" connect="1" arrows="1" fold="1" page="1" pageScale="1" pageWidth="850" pageHeight="1100" math="0" shadow="0">
      <root>
        <mxCell id="0" />
        <mxCell id="1" parent="0" />
        <mxCell id="O3zwm8_kzTkUwn5zVzkj-1" value="Student" style="swimlane;fontStyle=1;align=center;verticalAlign=top;childLayout=stackLayout;horizontal=1;startSize=26;horizontalStack=0;resizeParent=1;resizeParentMax=0;resizeLast=0;collapsible=1;marginBottom=0;whiteSpace=wrap;html=1;" parent="1" vertex="1">
          <mxGeometry x="280" y="790" width="200" height="160" as="geometry" />
        </mxCell>
        <mxCell id="O3zwm8_kzTkUwn5zVzkj-2" value="- studentID: int&lt;div&gt;- balance: int&lt;/div&gt;&lt;div&gt;- name: string&lt;/div&gt;&lt;div&gt;- printingLogs: list&amp;lt;PrintingLog&amp;gt;&lt;/div&gt;" style="text;strokeColor=none;fillColor=none;align=left;verticalAlign=top;spacingLeft=4;spacingRight=4;overflow=hidden;rotatable=0;points=[[0,0.5],[1,0.5]];portConstraint=eastwest;whiteSpace=wrap;html=1;" parent="O3zwm8_kzTkUwn5zVzkj-1" vertex="1">
          <mxGeometry y="26" width="200" height="74" as="geometry" />
        </mxCell>
        <mxCell id="O3zwm8_kzTkUwn5zVzkj-3" value="" style="line;strokeWidth=1;fillColor=none;align=left;verticalAlign=middle;spacingTop=-1;spacingLeft=3;spacingRight=3;rotatable=0;labelPosition=right;points=[];portConstraint=eastwest;strokeColor=inherit;" parent="O3zwm8_kzTkUwn5zVzkj-1" vertex="1">
          <mxGeometry y="100" width="200" height="28" as="geometry" />
        </mxCell>
        <mxCell id="O3zwm8_kzTkUwn5zVzkj-4" value="+ Student()" style="text;strokeColor=none;fillColor=none;align=left;verticalAlign=top;spacingLeft=4;spacingRight=4;overflow=hidden;rotatable=0;points=[[0,0.5],[1,0.5]];portConstraint=eastwest;whiteSpace=wrap;html=1;" parent="O3zwm8_kzTkUwn5zVzkj-1" vertex="1">
          <mxGeometry y="128" width="200" height="32" as="geometry" />
        </mxCell>
        <mxCell id="O3zwm8_kzTkUwn5zVzkj-5" value="PrintingLog" style="swimlane;fontStyle=1;align=center;verticalAlign=top;childLayout=stackLayout;horizontal=1;startSize=26;horizontalStack=0;resizeParent=1;resizeParentMax=0;resizeLast=0;collapsible=1;marginBottom=0;whiteSpace=wrap;html=1;" parent="1" vertex="1">
          <mxGeometry x="-10" y="790" width="200" height="280" as="geometry" />
        </mxCell>
        <mxCell id="O3zwm8_kzTkUwn5zVzkj-6" value="- id: int&lt;div&gt;- fileName: string&lt;/div&gt;&lt;div&gt;- fileSize: float&lt;/div&gt;&lt;div&gt;- paperSize: PaperSize&lt;/div&gt;&lt;div&gt;- numOfPages: int&lt;/div&gt;&lt;div&gt;- isDoubleSided: boolean&lt;br&gt;&lt;/div&gt;&lt;div&gt;- numOfCopies: int&lt;/div&gt;&lt;div&gt;- startDate: string&lt;/div&gt;&lt;div&gt;- endDate: string&lt;/div&gt;&lt;div&gt;- isHorizontal: boolean&lt;/div&gt;&lt;div&gt;- student: Student&lt;/div&gt;&lt;div&gt;- printer: Printer&lt;/div&gt;&lt;div&gt;- fileType: FileType&lt;/div&gt;" style="text;strokeColor=none;fillColor=none;align=left;verticalAlign=top;spacingLeft=4;spacingRight=4;overflow=hidden;rotatable=0;points=[[0,0.5],[1,0.5]];portConstraint=eastwest;whiteSpace=wrap;html=1;" parent="O3zwm8_kzTkUwn5zVzkj-5" vertex="1">
          <mxGeometry y="26" width="200" height="194" as="geometry" />
        </mxCell>
        <mxCell id="O3zwm8_kzTkUwn5zVzkj-7" value="" style="line;strokeWidth=1;fillColor=none;align=left;verticalAlign=middle;spacingTop=-1;spacingLeft=3;spacingRight=3;rotatable=0;labelPosition=right;points=[];portConstraint=eastwest;strokeColor=inherit;" parent="O3zwm8_kzTkUwn5zVzkj-5" vertex="1">
          <mxGeometry y="220" width="200" height="28" as="geometry" />
        </mxCell>
        <mxCell id="O3zwm8_kzTkUwn5zVzkj-8" value="+ PrintingLog()" style="text;strokeColor=none;fillColor=none;align=left;verticalAlign=top;spacingLeft=4;spacingRight=4;overflow=hidden;rotatable=0;points=[[0,0.5],[1,0.5]];portConstraint=eastwest;whiteSpace=wrap;html=1;" parent="O3zwm8_kzTkUwn5zVzkj-5" vertex="1">
          <mxGeometry y="248" width="200" height="32" as="geometry" />
        </mxCell>
        <mxCell id="O3zwm8_kzTkUwn5zVzkj-9" value="Printer" style="swimlane;fontStyle=1;align=center;verticalAlign=top;childLayout=stackLayout;horizontal=1;startSize=26;horizontalStack=0;resizeParent=1;resizeParentMax=0;resizeLast=0;collapsible=1;marginBottom=0;whiteSpace=wrap;html=1;" parent="1" vertex="1">
          <mxGeometry x="-310" y="790" width="200" height="210" as="geometry" />
        </mxCell>
        <mxCell id="O3zwm8_kzTkUwn5zVzkj-10" value="- id: int&lt;div&gt;- brandName: string&lt;/div&gt;&lt;div&gt;&lt;span style=&quot;background-color: initial;&quot;&gt;- model: string&lt;/span&gt;&lt;/div&gt;&lt;div&gt;- description: string&lt;/div&gt;&lt;div&gt;- campName: string&lt;/div&gt;&lt;div&gt;- buildName: string&lt;/div&gt;&lt;div&gt;- roomNumber: int&lt;/div&gt;&lt;div&gt;- slots: int&lt;/div&gt;" style="text;strokeColor=none;fillColor=none;align=left;verticalAlign=top;spacingLeft=4;spacingRight=4;overflow=hidden;rotatable=0;points=[[0,0.5],[1,0.5]];portConstraint=eastwest;whiteSpace=wrap;html=1;" parent="O3zwm8_kzTkUwn5zVzkj-9" vertex="1">
          <mxGeometry y="26" width="200" height="124" as="geometry" />
        </mxCell>
        <mxCell id="O3zwm8_kzTkUwn5zVzkj-11" value="" style="line;strokeWidth=1;fillColor=none;align=left;verticalAlign=middle;spacingTop=-1;spacingLeft=3;spacingRight=3;rotatable=0;labelPosition=right;points=[];portConstraint=eastwest;strokeColor=inherit;" parent="O3zwm8_kzTkUwn5zVzkj-9" vertex="1">
          <mxGeometry y="150" width="200" height="28" as="geometry" />
        </mxCell>
        <mxCell id="O3zwm8_kzTkUwn5zVzkj-12" value="+ Printer()" style="text;strokeColor=none;fillColor=none;align=left;verticalAlign=top;spacingLeft=4;spacingRight=4;overflow=hidden;rotatable=0;points=[[0,0.5],[1,0.5]];portConstraint=eastwest;whiteSpace=wrap;html=1;" parent="O3zwm8_kzTkUwn5zVzkj-9" vertex="1">
          <mxGeometry y="178" width="200" height="32" as="geometry" />
        </mxCell>
        <mxCell id="FLDLXC8c2ofxVLkmpWlf-1" value="" style="endArrow=none;html=1;rounded=0;entryX=0.01;entryY=0.079;entryDx=0;entryDy=0;entryPerimeter=0;exitX=1.015;exitY=0.123;exitDx=0;exitDy=0;exitPerimeter=0;" parent="1" source="O3zwm8_kzTkUwn5zVzkj-10" target="O3zwm8_kzTkUwn5zVzkj-6" edge="1">
          <mxGeometry width="50" height="50" relative="1" as="geometry">
            <mxPoint x="-370" y="1120" as="sourcePoint" />
            <mxPoint x="-320" y="1070" as="targetPoint" />
          </mxGeometry>
        </mxCell>
        <mxCell id="FLDLXC8c2ofxVLkmpWlf-3" value="*" style="text;html=1;align=center;verticalAlign=middle;resizable=0;points=[];autosize=1;strokeColor=none;fillColor=none;" parent="1" vertex="1">
          <mxGeometry x="-40" y="810" width="30" height="30" as="geometry" />
        </mxCell>
        <mxCell id="FLDLXC8c2ofxVLkmpWlf-4" value="1" style="text;html=1;align=center;verticalAlign=middle;resizable=0;points=[];autosize=1;strokeColor=none;fillColor=none;" parent="1" vertex="1">
          <mxGeometry x="-113" y="806" width="30" height="30" as="geometry" />
        </mxCell>
        <mxCell id="FLDLXC8c2ofxVLkmpWlf-5" value="" style="endArrow=none;html=1;rounded=0;exitX=1.015;exitY=0.123;exitDx=0;exitDy=0;exitPerimeter=0;" parent="1" edge="1">
          <mxGeometry width="50" height="50" relative="1" as="geometry">
            <mxPoint x="190" y="836" as="sourcePoint" />
            <mxPoint x="278" y="835" as="targetPoint" />
          </mxGeometry>
        </mxCell>
        <mxCell id="FLDLXC8c2ofxVLkmpWlf-6" value="*" style="text;html=1;align=center;verticalAlign=middle;resizable=0;points=[];autosize=1;strokeColor=none;fillColor=none;" parent="1" vertex="1">
          <mxGeometry x="184" y="816" width="30" height="30" as="geometry" />
        </mxCell>
        <mxCell id="FLDLXC8c2ofxVLkmpWlf-7" value="1" style="text;html=1;align=center;verticalAlign=middle;resizable=0;points=[];autosize=1;strokeColor=none;fillColor=none;" parent="1" vertex="1">
          <mxGeometry x="257" y="810" width="30" height="30" as="geometry" />
        </mxCell>
        <mxCell id="FLDLXC8c2ofxVLkmpWlf-13" value="«interface»&lt;br&gt;&lt;b&gt;PrintingService&lt;/b&gt;" style="swimlane;fontStyle=0;childLayout=stackLayout;horizontal=1;startSize=50;fillColor=none;horizontalStack=0;resizeParent=1;resizeParentMax=0;resizeLast=0;collapsible=1;marginBottom=0;whiteSpace=wrap;html=1;" parent="1" vertex="1">
          <mxGeometry x="20" y="-220" width="140" height="180" as="geometry" />
        </mxCell>
        <mxCell id="FLDLXC8c2ofxVLkmpWlf-14" value="+ prinDoc(printingLogs:&lt;div&gt;List&amp;lt;PrintingLog&amp;gt;, printerID: int, studentID:int): void&lt;/div&gt;&lt;div&gt;+ listOfPrintingLogs(&lt;/div&gt;&lt;div&gt;studentID: int): List&amp;lt;PrintingLog&amp;gt;&lt;/div&gt;" style="text;strokeColor=none;fillColor=none;align=left;verticalAlign=top;spacingLeft=4;spacingRight=4;overflow=hidden;rotatable=0;points=[[0,0.5],[1,0.5]];portConstraint=eastwest;whiteSpace=wrap;html=1;" parent="FLDLXC8c2ofxVLkmpWlf-13" vertex="1">
          <mxGeometry y="50" width="140" height="130" as="geometry" />
        </mxCell>
        <mxCell id="FLDLXC8c2ofxVLkmpWlf-17" value="" style="endArrow=block;dashed=1;endFill=0;endSize=12;html=1;rounded=0;exitX=0.5;exitY=0;exitDx=0;exitDy=0;" parent="1" source="FLDLXC8c2ofxVLkmpWlf-18" edge="1">
          <mxGeometry width="160" relative="1" as="geometry">
            <mxPoint x="89.65999999999997" y="70" as="sourcePoint" />
            <mxPoint x="89.65999999999997" y="-40" as="targetPoint" />
          </mxGeometry>
        </mxCell>
        <mxCell id="FLDLXC8c2ofxVLkmpWlf-18" value="«&lt;i&gt;interface&lt;/i&gt;»&lt;br&gt;&lt;b&gt;PrintingServiceImpl&lt;/b&gt;" style="swimlane;fontStyle=0;childLayout=stackLayout;horizontal=1;startSize=50;fillColor=none;horizontalStack=0;resizeParent=1;resizeParentMax=0;resizeLast=0;collapsible=1;marginBottom=0;whiteSpace=wrap;html=1;" parent="1" vertex="1">
          <mxGeometry x="20" y="80" width="140" height="230" as="geometry" />
        </mxCell>
        <mxCell id="IyWA2aXjiLLQtU1UvueA-35" value="&lt;span style=&quot;&quot;&gt;- fileValidationService&lt;/span&gt;&lt;div style=&quot;&quot;&gt;- balanceService&lt;/div&gt;" style="html=1;whiteSpace=wrap;align=left;" parent="FLDLXC8c2ofxVLkmpWlf-18" vertex="1">
          <mxGeometry y="50" width="140" height="50" as="geometry" />
        </mxCell>
        <mxCell id="FLDLXC8c2ofxVLkmpWlf-20" value="+ prinDoc(printingLogs:&lt;div&gt;List&amp;lt;PrintingLog&amp;gt;, printerID: int, studentID:int): void&lt;/div&gt;&lt;div&gt;+ listOfPrintingLogs(&lt;/div&gt;&lt;div&gt;studentID: int): List&amp;lt;PrintingLog&amp;gt;&lt;/div&gt;" style="text;strokeColor=none;fillColor=none;align=left;verticalAlign=top;spacingLeft=4;spacingRight=4;overflow=hidden;rotatable=0;points=[[0,0.5],[1,0.5]];portConstraint=eastwest;whiteSpace=wrap;html=1;" parent="FLDLXC8c2ofxVLkmpWlf-18" vertex="1">
          <mxGeometry y="100" width="140" height="130" as="geometry" />
        </mxCell>
        <mxCell id="IyWA2aXjiLLQtU1UvueA-4" value="«&lt;i&gt;interface&lt;/i&gt;»&lt;br&gt;&lt;b&gt;BalanceService&lt;/b&gt;" style="swimlane;fontStyle=0;childLayout=stackLayout;horizontal=1;startSize=50;fillColor=none;horizontalStack=0;resizeParent=1;resizeParentMax=0;resizeLast=0;collapsible=1;marginBottom=0;whiteSpace=wrap;html=1;" parent="1" vertex="1">
          <mxGeometry x="310" y="350" width="140" height="180" as="geometry" />
        </mxCell>
        <mxCell id="IyWA2aXjiLLQtU1UvueA-6" value="+ verifyBalance(&lt;div&gt;studentID: int, amount: float): boolean&lt;/div&gt;&lt;div&gt;+ notifyBalanceError(&lt;/div&gt;&lt;div&gt;studentID:int): string&lt;/div&gt;" style="text;strokeColor=none;fillColor=none;align=left;verticalAlign=top;spacingLeft=4;spacingRight=4;overflow=hidden;rotatable=0;points=[[0,0.5],[1,0.5]];portConstraint=eastwest;whiteSpace=wrap;html=1;" parent="IyWA2aXjiLLQtU1UvueA-4" vertex="1">
          <mxGeometry y="50" width="140" height="130" as="geometry" />
        </mxCell>
        <mxCell id="IyWA2aXjiLLQtU1UvueA-7" value="«&lt;i&gt;interface&lt;/i&gt;»&lt;br&gt;&lt;b&gt;FileValidationService&lt;/b&gt;" style="swimlane;fontStyle=0;childLayout=stackLayout;horizontal=1;startSize=50;fillColor=none;horizontalStack=0;resizeParent=1;resizeParentMax=0;resizeLast=0;collapsible=1;marginBottom=0;whiteSpace=wrap;html=1;" parent="1" vertex="1">
          <mxGeometry x="-270" y="350" width="140" height="180" as="geometry" />
        </mxCell>
        <mxCell id="IyWA2aXjiLLQtU1UvueA-9" value="+ validateFileFormat(&lt;div&gt;fileType: FileType): boolean&lt;/div&gt;&lt;div&gt;+ notifyFileFormat( fileType: FileType): string&lt;/div&gt;" style="text;strokeColor=none;fillColor=none;align=left;verticalAlign=top;spacingLeft=4;spacingRight=4;overflow=hidden;rotatable=0;points=[[0,0.5],[1,0.5]];portConstraint=eastwest;whiteSpace=wrap;html=1;" parent="IyWA2aXjiLLQtU1UvueA-7" vertex="1">
          <mxGeometry y="50" width="140" height="130" as="geometry" />
        </mxCell>
        <mxCell id="IyWA2aXjiLLQtU1UvueA-10" value="«Enumerate»&lt;br&gt;&lt;b&gt;FileType&lt;/b&gt;" style="swimlane;fontStyle=0;childLayout=stackLayout;horizontal=1;startSize=50;fillColor=none;horizontalStack=0;resizeParent=1;resizeParentMax=0;resizeLast=0;collapsible=1;marginBottom=0;whiteSpace=wrap;html=1;" parent="1" vertex="1">
          <mxGeometry x="300" y="20" width="140" height="180" as="geometry" />
        </mxCell>
        <mxCell id="IyWA2aXjiLLQtU1UvueA-11" value="&lt;span style=&quot;color: rgb(4, 12, 40); font-family: &amp;quot;Google Sans&amp;quot;, Arial, sans-serif; font-size: 16px; background-color: rgb(255, 255, 255);&quot;&gt;PDF, EPS, JPG, TIFF, GIF, PNG, ZIP&lt;/span&gt;" style="text;strokeColor=none;fillColor=none;align=left;verticalAlign=top;spacingLeft=4;spacingRight=4;overflow=hidden;rotatable=0;points=[[0,0.5],[1,0.5]];portConstraint=eastwest;whiteSpace=wrap;html=1;" parent="IyWA2aXjiLLQtU1UvueA-10" vertex="1">
          <mxGeometry y="50" width="140" height="130" as="geometry" />
        </mxCell>
        <mxCell id="IyWA2aXjiLLQtU1UvueA-12" value="«Enumerate»&lt;br&gt;&lt;b&gt;PageSize&lt;/b&gt;" style="swimlane;fontStyle=0;childLayout=stackLayout;horizontal=1;startSize=50;fillColor=none;horizontalStack=0;resizeParent=1;resizeParentMax=0;resizeLast=0;collapsible=1;marginBottom=0;whiteSpace=wrap;html=1;" parent="1" vertex="1">
          <mxGeometry x="-270" y="20" width="140" height="180" as="geometry" />
        </mxCell>
        <mxCell id="IyWA2aXjiLLQtU1UvueA-13" value="&lt;font face=&quot;Google Sans, Arial, sans-serif&quot; color=&quot;#040c28&quot;&gt;&lt;span style=&quot;font-size: 16px; background-color: rgb(255, 255, 255);&quot;&gt;A1, A2, A3, A4, A5&lt;/span&gt;&lt;/font&gt;" style="text;strokeColor=none;fillColor=none;align=left;verticalAlign=top;spacingLeft=4;spacingRight=4;overflow=hidden;rotatable=0;points=[[0,0.5],[1,0.5]];portConstraint=eastwest;whiteSpace=wrap;html=1;" parent="IyWA2aXjiLLQtU1UvueA-12" vertex="1">
          <mxGeometry y="50" width="140" height="130" as="geometry" />
        </mxCell>
        <mxCell id="IyWA2aXjiLLQtU1UvueA-14" value="UserDAO" style="swimlane;fontStyle=0;childLayout=stackLayout;horizontal=1;startSize=50;fillColor=none;horizontalStack=0;resizeParent=1;resizeParentMax=0;resizeLast=0;collapsible=1;marginBottom=0;whiteSpace=wrap;html=1;" parent="1" vertex="1">
          <mxGeometry x="20" y="570" width="140" height="150" as="geometry" />
        </mxCell>
        <mxCell id="EpyvIytc23RXGTYjSKD1-2" value="&amp;nbsp;+ save(entity S): void&lt;div&gt;&amp;nbsp;+ findAll(): List&amp;lt;S&amp;gt;&lt;/div&gt;" style="html=1;whiteSpace=wrap;align=left;" parent="IyWA2aXjiLLQtU1UvueA-14" vertex="1">
          <mxGeometry y="50" width="140" height="50" as="geometry" />
        </mxCell>
        <mxCell id="EpyvIytc23RXGTYjSKD1-1" value="-session: Session" style="text;strokeColor=none;fillColor=none;align=left;verticalAlign=top;spacingLeft=4;spacingRight=4;overflow=hidden;rotatable=0;points=[[0,0.5],[1,0.5]];portConstraint=eastwest;whiteSpace=wrap;html=1;" parent="IyWA2aXjiLLQtU1UvueA-14" vertex="1">
          <mxGeometry y="100" width="140" height="50" as="geometry" />
        </mxCell>
        <mxCell id="IyWA2aXjiLLQtU1UvueA-16" value="Use" style="endArrow=open;endSize=12;dashed=1;html=1;rounded=0;exitX=1;exitY=0.5;exitDx=0;exitDy=0;" parent="1" edge="1">
          <mxGeometry width="160" relative="1" as="geometry">
            <mxPoint x="160" y="215" as="sourcePoint" />
            <mxPoint x="300" y="125" as="targetPoint" />
          </mxGeometry>
        </mxCell>
        <mxCell id="IyWA2aXjiLLQtU1UvueA-17" value="Use" style="endArrow=open;endSize=12;dashed=1;html=1;rounded=0;exitX=0.002;exitY=0.3;exitDx=0;exitDy=0;exitPerimeter=0;" parent="1" edge="1">
          <mxGeometry width="160" relative="1" as="geometry">
            <mxPoint x="20.2800000000002" y="201.00000000000023" as="sourcePoint" />
            <mxPoint x="-130" y="104" as="targetPoint" />
          </mxGeometry>
        </mxCell>
        <mxCell id="IyWA2aXjiLLQtU1UvueA-31" value="Use" style="endArrow=open;endSize=12;dashed=1;html=1;rounded=0;exitX=0;exitY=0.5;exitDx=0;exitDy=0;entryX=0.5;entryY=0;entryDx=0;entryDy=0;" parent="1" target="O3zwm8_kzTkUwn5zVzkj-9" edge="1">
          <mxGeometry width="160" relative="1" as="geometry">
            <mxPoint x="20" y="695" as="sourcePoint" />
            <mxPoint x="-130" y="661" as="targetPoint" />
          </mxGeometry>
        </mxCell>
        <mxCell id="IyWA2aXjiLLQtU1UvueA-32" value="Use" style="endArrow=open;endSize=12;dashed=1;html=1;rounded=0;exitX=1;exitY=0.5;exitDx=0;exitDy=0;entryX=0.5;entryY=0;entryDx=0;entryDy=0;" parent="1" target="O3zwm8_kzTkUwn5zVzkj-1" edge="1">
          <mxGeometry width="160" relative="1" as="geometry">
            <mxPoint x="160" y="695" as="sourcePoint" />
            <mxPoint x="-110" y="124" as="targetPoint" />
          </mxGeometry>
        </mxCell>
        <mxCell id="IyWA2aXjiLLQtU1UvueA-33" value="Use" style="endArrow=open;endSize=12;dashed=1;html=1;rounded=0;entryX=0.5;entryY=0;entryDx=0;entryDy=0;" parent="1" target="O3zwm8_kzTkUwn5zVzkj-5" edge="1">
          <mxGeometry width="160" relative="1" as="geometry">
            <mxPoint x="90" y="720" as="sourcePoint" />
            <mxPoint x="-10" y="751" as="targetPoint" />
          </mxGeometry>
        </mxCell>
        <mxCell id="EpyvIytc23RXGTYjSKD1-3" value="Use" style="endArrow=open;endSize=12;dashed=1;html=1;rounded=0;entryX=-0.007;entryY=0.167;entryDx=0;entryDy=0;entryPerimeter=0;" parent="1" target="IyWA2aXjiLLQtU1UvueA-14" edge="1">
          <mxGeometry width="160" relative="1" as="geometry">
            <mxPoint x="-200" y="530" as="sourcePoint" />
            <mxPoint x="-40" y="530" as="targetPoint" />
          </mxGeometry>
        </mxCell>
        <mxCell id="EpyvIytc23RXGTYjSKD1-5" value="Use" style="endArrow=open;endSize=12;dashed=1;html=1;rounded=0;entryX=0.993;entryY=0.153;entryDx=0;entryDy=0;entryPerimeter=0;exitX=0.536;exitY=1.015;exitDx=0;exitDy=0;exitPerimeter=0;" parent="1" source="IyWA2aXjiLLQtU1UvueA-6" target="IyWA2aXjiLLQtU1UvueA-14" edge="1">
          <mxGeometry width="160" relative="1" as="geometry">
            <mxPoint x="-190" y="540" as="sourcePoint" />
            <mxPoint x="29" y="605" as="targetPoint" />
          </mxGeometry>
        </mxCell>
        <mxCell id="OwmhQP8nZRP0zUjcRTl4-1" value="" style="endArrow=diamondThin;endFill=0;endSize=24;html=1;rounded=0;entryX=0.5;entryY=0;entryDx=0;entryDy=0;exitX=0;exitY=0.5;exitDx=0;exitDy=0;" edge="1" parent="1" source="FLDLXC8c2ofxVLkmpWlf-20" target="IyWA2aXjiLLQtU1UvueA-7">
          <mxGeometry width="160" relative="1" as="geometry">
            <mxPoint x="-280" y="670" as="sourcePoint" />
            <mxPoint x="-120" y="670" as="targetPoint" />
            <Array as="points">
              <mxPoint x="-200" y="245" />
            </Array>
          </mxGeometry>
        </mxCell>
        <mxCell id="OwmhQP8nZRP0zUjcRTl4-2" value="" style="endArrow=diamondThin;endFill=0;endSize=24;html=1;rounded=0;entryX=0.5;entryY=0;entryDx=0;entryDy=0;exitX=1;exitY=0.5;exitDx=0;exitDy=0;" edge="1" parent="1" source="FLDLXC8c2ofxVLkmpWlf-20" target="IyWA2aXjiLLQtU1UvueA-4">
          <mxGeometry width="160" relative="1" as="geometry">
            <mxPoint x="30" y="255" as="sourcePoint" />
            <mxPoint x="-190" y="360" as="targetPoint" />
            <Array as="points">
              <mxPoint x="380" y="245" />
            </Array>
          </mxGeometry>
        </mxCell>
      </root>
    </mxGraphModel>
  </diagram>
</mxfile>
